<svg viewBox="0 0 512 512" xml:space="preserve" xmlns="http://www.w3.org/2000/svg"><path d="M182.922 264.709c-39.745 0-72.08 32.336-72.08 72.08 0 39.745 32.335 72.079 72.08 72.079 39.744 0 72.08-32.334 72.08-72.079 0-14.443-4.259-28.381-12.314-40.306a6.775 6.775 0 0 0-11.227 7.585c6.538 9.677 9.993 20.99 9.993 32.721 0 32.274-26.257 58.531-58.531 58.531-32.275 0-58.531-26.257-58.531-58.531s26.256-58.531 58.531-58.531a6.774 6.774 0 1 0-.001-13.549z" fill="#5850eb" class="fill-000000"></path><path d="m308.15 401.063-17.715-17.717c-1.592-1.592-2.026-4.051-1.151-6.156.018-.039.101-.234.116-.273.914-2.206 2.956-3.632 5.203-3.632h25.054a6.775 6.775 0 0 0 6.774-6.774v-67.184a6.775 6.775 0 0 0-6.774-6.774h-25.054c-2.247 0-4.289-1.426-5.273-3.798-.921-2.213-.486-4.672 1.105-6.266l17.715-17.715a6.773 6.773 0 0 0 0-9.58l-47.505-47.505a6.774 6.774 0 1 0-9.581 9.581l42.717 42.715-12.925 12.924c-5.487 5.486-7.071 13.748-3.973 21.195 3.017 7.287 9.972 11.997 17.72 11.997h18.279v53.635h-18.279c-7.748 0-14.703 4.71-17.671 11.88-.015.035-.097.228-.111.264-3.038 7.299-1.454 15.563 4.035 21.047l12.925 12.926-37.926 37.926-12.925-12.926c-5.488-5.488-13.751-7.071-21.194-3.973-7.288 3.018-11.998 9.975-11.998 17.721v18.279h-53.634V444.6c0-7.747-4.709-14.703-12.144-17.781-7.299-3.036-15.56-1.453-21.048 4.033l-12.925 12.926-37.925-37.926 12.925-12.926c5.486-5.488 7.07-13.75 3.973-21.193-3.019-7.287-9.975-11.997-17.72-11.997H52.962v-53.635h18.279c7.746 0 14.702-4.71 17.781-12.144 3.035-7.299 1.452-15.561-4.034-21.049l-12.925-12.924 37.925-37.925 12.925 12.924c5.486 5.488 13.747 7.072 21.194 3.974 7.288-3.019 11.997-9.975 11.997-17.72v-18.279h53.634v18.279c0 7.747 4.71 14.703 11.998 17.72a102.47 102.47 0 0 1 7.255 3.346 6.774 6.774 0 0 0 6.15-12.072 115.902 115.902 0 0 0-8.222-3.792c-2.207-.914-3.633-2.956-3.633-5.203v-25.054a6.774 6.774 0 0 0-6.774-6.774H149.33a6.774 6.774 0 0 0-6.774 6.774v25.054c0 2.247-1.426 4.289-3.799 5.272-2.211.922-4.671.488-6.263-1.105l-17.715-17.715a6.776 6.776 0 0 0-9.581 0l-47.506 47.505a6.775 6.775 0 0 0 0 9.582l17.715 17.713c1.593 1.594 2.026 4.053 1.128 6.213-.009.021-.082.197-.092.218-.914 2.207-2.956 3.633-5.202 3.633H46.188a6.774 6.774 0 0 0-6.774 6.774v67.184a6.774 6.774 0 0 0 6.774 6.774h25.054c2.246 0 4.288 1.426 5.272 3.798.92 2.213.486 4.672-1.106 6.264l-17.715 17.715a6.775 6.775 0 0 0 0 9.582l47.506 47.505a6.776 6.776 0 0 0 9.581 0l17.715-17.716c1.592-1.594 4.051-2.023 6.211-1.127.021.009.197.082.218.092 2.207.914 3.633 2.956 3.633 5.203v25.053a6.774 6.774 0 0 0 6.774 6.774h67.183a6.774 6.774 0 0 0 6.774-6.774V444.6c0-2.248 1.426-4.29 3.557-5.174l.243-.1c2.212-.921 4.672-.485 6.263 1.105l17.715 17.715a6.774 6.774 0 0 0 9.581.001l47.505-47.505a6.774 6.774 0 0 0-.002-9.579zM377.926 312.506c0 24.05 19.566 43.617 43.618 43.617s43.618-19.567 43.618-43.617c0-24.051-19.566-43.619-43.618-43.619s-43.618 19.568-43.618 43.619zm73.687 0c0 16.58-13.489 30.069-30.069 30.069s-30.07-13.489-30.07-30.069c0-16.582 13.49-30.07 30.07-30.07s30.069 13.488 30.069 30.07zM465.813 443.785a6.774 6.774 0 0 0 6.774-6.773v-16.967c0-28.145-22.897-51.042-51.043-51.042s-51.043 22.897-51.043 51.042v43.62h-82.472a6.774 6.774 0 0 0 0 13.547h88.918c.111.006.216.033.328.033h88.537a6.775 6.775 0 0 0 0-13.548H384.05v-43.652c0-20.674 16.82-37.494 37.494-37.494s37.494 16.82 37.494 37.494v16.967a6.774 6.774 0 0 0 6.775 6.773zM93.609 185.172a6.774 6.774 0 0 0 6.774-6.774V64.49h44.934a6.774 6.774 0 1 0 0-13.548H93.609a6.774 6.774 0 0 0-6.774 6.774v120.682a6.774 6.774 0 0 0 6.774 6.774zM375.443 64.49h45.933v163.937a6.774 6.774 0 1 0 13.547 0V57.716a6.774 6.774 0 0 0-6.773-6.774h-52.707a6.774 6.774 0 0 0 0 13.548zM185.378 93.665h151.005a6.774 6.774 0 0 0 6.773-6.774V41.528a6.774 6.774 0 0 0-6.773-6.774H185.378a6.774 6.774 0 0 0-6.774 6.774v45.363a6.774 6.774 0 0 0 6.774 6.774zm6.774-45.363h137.456v31.814H192.152V48.302z" fill="#5850eb" class="fill-000000"></path><path d="M182.922 292.964a6.774 6.774 0 0 0-6.774 6.774v37.051a6.773 6.773 0 0 0 6.774 6.773h24.714a6.774 6.774 0 0 0 0-13.548h-17.939v-30.275a6.776 6.776 0 0 0-6.775-6.775zM168.652 146.977h152.94a6.774 6.774 0 0 0 0-13.548h-152.94a6.774 6.774 0 1 0 0 13.548zM321.593 188.101h-31.064a6.775 6.775 0 0 0 0 13.548h31.064a6.774 6.774 0 0 0 0-13.548zM362.332 154.588a6.756 6.756 0 0 0 4.789 1.983 6.752 6.752 0 0 0 4.79-1.984l19.19-19.191a6.774 6.774 0 1 0-9.579-9.579l-14.401 14.401-5.706-5.705a6.772 6.772 0 0 0-9.579.001 6.773 6.773 0 0 0 0 9.58l10.496 10.494zM362.332 209.261a6.757 6.757 0 0 0 4.789 1.984 6.75 6.75 0 0 0 4.79-1.985l19.19-19.191a6.774 6.774 0 1 0-9.579-9.579l-14.401 14.401-5.706-5.705a6.773 6.773 0 0 0-9.579 0 6.773 6.773 0 0 0 0 9.58l10.496 10.495z" fill="#5850eb" class="fill-000000"></path></svg>